<?xml version="1.0" encoding="UTF-8"?>
<svg width="484px" height="273px" viewBox="0 0 484 273" version="1.1" xmlns="http://www.w3.org/2000/svg" xmlns:xlink="http://www.w3.org/1999/xlink">
    <!-- Generator: Sketch 64 (93537) - https://sketch.com -->
    <title>矩形</title>
    <desc>Created with Sketch.</desc>
    <g id="整理" stroke="none" stroke-width="1" fill="none" fill-rule="evenodd">
        <g id="画板" transform="translate(-98.000000, -75.000000)" fill="#000000" fill-rule="nonzero">
            <path d="M538.854877,79.0679164 C559.041927,79.5924097 575.67205,95.0813429 577.627905,115.180266 L578.326226,122.473707 C580.719745,147.910833 581.943704,165.847612 582,176.284046 L582,177 C582,187.777407 580.665012,205.614177 577.995036,230.510309 C575.873088,250.296376 559.529319,265.513752 539.642323,266.219799 L405,271 L404.06039,272.769604 C393.448489,292.659059 384.095026,306.902525 376,315.5 C367.666885,324.350342 353.166885,335.183676 332.5,348 L332.934942,346.121627 C337.126999,327.785284 338.815351,313.411409 338,303 C337.15701,292.235662 333.15701,281.568996 326,271 L317.279164,270.420701 C262.931745,266.84492 225.39059,265.03822 204.6557,265.0006 L138.533376,265 C116.441986,265 98.533375,247.091391 98.533375,225 C98.533375,223.711223 98.5956604,222.423199 98.7200134,221.140435 L99.0791788,217.386883 C101.026393,196.757908 102,181.628947 102,172 L101.997266,171.10113 C101.939854,161.504425 100.978209,146.912635 99.1123307,127.325758 L98.6523527,122.58169 C96.4848905,100.596885 112.550021,81.0176043 134.534826,78.850142 C135.447359,78.7601762 136.362715,78.7016153 137.279273,78.674563 L154.218772,78.1829156 C225.462845,76.1514856 279.301163,75.0924443 315.733725,75.0057914 L320.5,75 C361.690809,75 434.475768,76.3559721 538.854877,79.0679164 Z M319.321437,79.0003667 C280.177256,79.0245896 219.530343,80.2486558 137.397282,82.6728218 C136.57238,82.6971689 135.748559,82.7498738 134.92728,82.830843 C115.338818,84.7620519 100.972043,102.052052 102.579563,121.597519 L102.633176,122.190483 L103.095274,126.956552 C105.030948,147.277094 106,162.274051 106,172 L105.994106,173.346534 C105.905042,183.768218 104.806642,199.809234 102.70135,221.526392 C102.589432,222.680879 102.533375,223.840101 102.533375,225 C102.533375,244.683429 118.330381,260.67727 137.938086,260.995177 L138.533412,261 L204.662957,261.000607 L206.687651,261.009489 C227.205528,261.149747 262.435964,262.844985 312.428549,266.094894 L326.267556,267.008958 L328.216704,267.139627 L329.312058,268.757173 C336.842305,279.877341 341.088111,291.199489 341.98779,302.687703 C342.695226,311.721111 341.62324,323.412571 338.794322,337.816866 L338.459,339.495 L340.781278,337.983153 C355.456523,328.359859 366.126099,320.049941 372.753664,313.110251 L373.087755,312.757951 C381.010195,304.343774 390.345806,290.071907 400.999401,270.007159 L402.544879,267.084644 L539.500401,262.222318 C557.398697,261.586875 572.108089,247.891237 574.017842,230.083777 L574.500228,225.523072 C576.803143,203.430944 577.968706,187.369008 577.999378,177.400779 L577.999378,176.294459 C577.938927,165.048875 576.488907,144.774909 573.646711,115.567681 C571.886441,97.4786508 556.91933,83.5386109 538.750985,83.0665669 L514.314389,82.441933 C424.951576,80.1971595 361.176574,79.0504238 323.007888,79.0003667 L319.321437,79.0003667 Z" id="矩形" transform="translate(340.228219, 211.500000) scale(-1, 1) translate(-340.228219, -211.500000) "></path>
        </g>
    </g>
</svg>