<?xml version="1.0" encoding="UTF-8"?>
<svg width="484px" height="273px" viewBox="0 0 484 273" version="1.1" xmlns="http://www.w3.org/2000/svg" xmlns:xlink="http://www.w3.org/1999/xlink">
    <!-- Generator: Sketch 64 (93537) - https://sketch.com -->
    <title>矩形备份</title>
    <desc>Created with Sketch.</desc>
    <defs>
        <path d="M670.279273,85.674563 C753.277741,83.2248543 814.351317,82 853.5,82 C894.690809,82 967.475768,83.3559721 1071.85488,86.0679164 C1092.04193,86.5924097 1108.67205,102.081343 1110.6279,122.180266 C1113.54263,152.132867 1115,172.739445 1115,184 C1115,194.777407 1113.66501,212.614177 1110.99504,237.510309 C1108.87309,257.296376 1092.52932,272.513752 1072.64232,273.219799 L938,278 L938,278 C926.999781,298.816324 917.333115,313.649658 909,322.5 C900.666885,331.350342 886.166885,342.183676 865.5,355 C870.009657,335.764338 871.84299,320.764338 871,310 C870.15701,299.235662 866.15701,288.568996 859,278 C799.333333,274 758.666667,272 737,272 C722.18803,272 700.365822,272 671.533376,272 C649.441986,272.000001 631.533375,254.091391 631.533375,232 C631.533375,230.711223 631.59566,229.423199 631.720013,228.140435 C633.906671,205.583955 635,189.20381 635,179 C635,168.691485 633.884118,152.218715 631.652354,129.58169 L631.652353,129.58169 C629.48489,107.596885 645.550021,88.0176043 667.534826,85.850142 C668.447359,85.7601762 669.362715,85.7016153 670.279273,85.674563 Z" id="path-1"></path>
    </defs>
    <g id="整理" stroke="none" stroke-width="1" fill="none" fill-rule="evenodd">
        <g id="画板" transform="translate(-627.000000, -82.000000)">
            <mask id="mask-2" fill="white">
                <use xlink:href="#path-1"></use>
            </mask>
            <use id="矩形备份" fill="#FFFFFF" transform="translate(871.000000, 218.500000) scale(-1, 1) translate(-871.000000, -218.500000) " xlink:href="#path-1"></use>
        </g>
    </g>
</svg>